<svg width="29" height="28" viewBox="0 0 29 28" fill="none" xmlns="http://www.w3.org/2000/svg">
<path d="M7.40033 27.9998C6.51378 27.9914 5.67382 27.5942 5.10269 26.9126C4.53156 26.231 4.28543 25.3322 4.42882 24.4527L5.51611 18.088L0.911168 13.5797C0.0891291 12.7745 -0.207172 11.5697 0.147673 10.4731C0.502519 9.37641 1.44764 8.57593 2.5839 8.41036L8.94763 7.4816L11.7937 1.68954V1.69074C12.3015 0.655174 13.3505 0 14.5 0C15.6482 0 16.6985 0.655174 17.2063 1.69074L20.0524 7.48188L26.4161 8.41064C27.5523 8.57743 28.4975 9.37659 28.8523 10.4746C29.2072 11.5713 28.9109 12.7761 28.0888 13.5812L23.4839 18.087L24.5712 24.4529C24.7659 25.5905 24.2999 26.7401 23.3704 27.418C22.4408 28.096 21.2077 28.1848 20.1908 27.6484L14.5 24.6437L8.80797 27.6484C8.37424 27.8788 7.89141 27.9998 7.40033 27.9998ZM14.5 1.91996C14.077 1.91516 13.6899 2.15636 13.5083 2.53914L10.4401 8.78369C10.3003 9.06688 10.0314 9.26367 9.71957 9.30926L2.85879 10.31C2.44418 10.3748 2.10246 10.6688 1.97225 11.0684C1.84321 11.4692 1.94835 11.9084 2.24586 12.206L7.21021 17.0657C7.43484 17.2865 7.53759 17.6033 7.48502 17.9153L6.31291 24.7767C6.246 25.1931 6.41805 25.6118 6.75618 25.859C7.09552 26.1062 7.54476 26.141 7.91756 25.949L14.054 22.7091H14.0552C14.3336 22.5615 14.6658 22.5615 14.9441 22.7091L21.0806 25.949C21.4534 26.141 21.9026 26.1062 22.242 25.859C22.5813 25.6106 22.7534 25.193 22.6865 24.7767L21.5143 17.914V17.9152C21.4618 17.6033 21.5633 17.2865 21.7891 17.0657L26.7535 12.2059H26.7523C27.051 11.9095 27.1561 11.4692 27.0271 11.0684C26.8981 10.6688 26.5551 10.3748 26.1406 10.31L19.2798 9.30923C18.968 9.26363 18.6991 9.06804 18.5593 8.78366L15.4911 2.53911C15.3095 2.15632 14.923 1.91517 14.5 1.91996Z" fill="black"/>
</svg>
