<svg width="23" height="21" viewBox="0 0 23 21" fill="none" xmlns="http://www.w3.org/2000/svg">
<path d="M8 11C10.7572 11 13 8.53288 13 5.5C13 2.46712 10.7572 0 8 0C5.24283 0 3 2.46712 3 5.5C3 8.53288 5.24283 11 8 11ZM8 1.83333C9.83811 1.83333 11.3333 3.47808 11.3333 5.5C11.3333 7.52192 9.83811 9.16667 8 9.16667C6.16189 9.16667 4.66667 7.52192 4.66667 5.5C4.66667 3.47808 6.16189 1.83333 8 1.83333Z" fill="white"/>
<path d="M11.2 12H4.8C2.15312 12 0 14.4223 0 17.4V21H1.6V17.4C1.6 15.4148 3.03541 13.8 4.8 13.8H11.2C12.9646 13.8 14.4 15.4148 14.4 17.4V21H16V17.4C16 14.4223 13.8469 12 11.2 12Z" fill="white"/>
<path d="M19.8 6H18.2V9.2H15V10.8H18.2V14H19.8V10.8H23V9.2H19.8V6Z" fill="white"/>
</svg>
