<svg width="12" height="19" viewBox="0 0 12 19" fill="none" xmlns="http://www.w3.org/2000/svg">
<path d="M11.1549 8.86098C11.1276 8.49738 10.9583 8.15655 10.6792 7.90327L2.75666 0.776966C2.60631 0.641794 2.42879 0.535788 2.23425 0.465C2.03971 0.394213 1.83197 0.360032 1.62287 0.364409C1.41378 0.368786 1.20744 0.411636 1.01563 0.490512C0.823819 0.569387 0.650288 0.682743 0.504977 0.824104C0.359667 0.965465 0.245422 1.13206 0.168741 1.31438C0.0920599 1.4967 0.0544458 1.69117 0.0580708 1.88667C0.0616967 2.08218 0.106492 2.2749 0.189872 2.45383C0.273253 2.63275 0.393592 2.79438 0.544029 2.92947L7.363 9.06715L1.05145 15.7255C0.912254 15.8721 0.805159 16.0428 0.736263 16.2277C0.667368 16.4126 0.638024 16.6083 0.649918 16.8034C0.661813 16.9986 0.7147 17.1894 0.805574 17.365C0.896448 17.5407 1.02353 17.6977 1.17955 17.827C1.33557 17.9564 1.51747 18.0557 1.71488 18.1191C1.91229 18.1826 2.12134 18.209 2.33009 18.1968C2.53884 18.1846 2.7432 18.1342 2.9315 18.0482C3.11981 17.9623 3.28839 17.8427 3.42758 17.6961L10.761 9.96479C10.9024 9.81454 11.0101 9.63938 11.0778 9.44974C11.1455 9.26011 11.1717 9.05988 11.1549 8.86098Z" fill="#884EE9"/>
</svg>
