<svg width="31" height="31" viewBox="0 0 31 31" fill="none" xmlns="http://www.w3.org/2000/svg">
<path fill-rule="evenodd" clip-rule="evenodd" d="M24.3159 6.68382C22.0599 4.42778 18.9427 3.03276 15.5 3.03276C12.0572 3.03276 8.9399 4.42778 6.68398 6.68382C4.42794 8.93986 3.03292 12.0571 3.03292 15.4998C3.03292 18.9425 4.42794 22.0599 6.68398 24.3158C8.94003 26.5718 12.0572 27.9668 15.5 27.9668C18.9427 27.9668 22.06 26.5718 24.3159 24.3158C26.572 22.0597 27.967 18.9425 27.967 15.4998C27.967 12.0571 26.572 8.93973 24.3159 6.68382ZM22.9465 8.60007L17.9644 17.7941C17.9516 17.8197 17.9363 17.8427 17.9171 17.8644L17.8775 17.904L17.8698 17.9104L17.8609 17.9193C17.8392 17.9372 17.8149 17.9538 17.7894 17.9666L8.60022 22.9464C8.48397 23.0115 8.33833 23.0166 8.21313 22.9502C8.01768 22.8455 7.94486 22.6015 8.04962 22.406L13.0255 13.2234C13.0447 13.1812 13.0728 13.1416 13.106 13.1072C13.1405 13.0727 13.1801 13.0446 13.2222 13.0267L22.4061 8.04947C22.6016 7.94471 22.8456 8.01753 22.9504 8.21299C23.0181 8.33818 23.0116 8.48382 22.9465 8.60007ZM17.5121 16.9422L14.0579 13.488L21.6001 9.40132L17.5121 16.9422ZM16.9423 17.5119L9.40112 21.5986L13.4878 14.0574L16.9423 17.5119ZM15.5 0C19.7796 0 23.6557 1.73484 26.4597 4.54028C29.2651 7.34437 31 11.2204 31 15.5C31 19.7796 29.2652 23.6557 26.4597 26.4597C23.6556 29.2651 19.7796 31 15.5 31C11.2204 31 7.34431 29.2652 4.54028 26.4597C1.73491 23.6556 0 19.7796 0 15.5C0 11.2204 1.73484 7.34431 4.54028 4.54028C7.34437 1.73491 11.2204 0 15.5 0ZM25.891 5.10867C28.5507 7.76841 30.1948 11.4411 30.1948 15.4997C30.1948 19.5582 28.5507 23.2312 25.891 25.8907C23.2313 28.5491 19.5585 30.1945 15.5 30.1945C11.4414 30.1945 7.76848 28.5504 5.109 25.8907C2.44926 23.2309 0.805169 19.5582 0.805169 15.4997C0.805169 11.4411 2.44929 7.76815 5.109 5.10867C7.76874 2.44893 11.4414 0.804842 15.5 0.804842C19.5585 0.804842 23.2315 2.44896 25.891 5.10867Z" fill="white"/>
</svg>
