<svg width="30" height="25" viewBox="0 0 30 25" fill="none" xmlns="http://www.w3.org/2000/svg">
<path d="M9.21089 3.92441C12.1062 4.02411 14.3706 6.37184 14.2675 9.17038C14.1629 11.9674 11.7327 14.155 8.83583 14.054C5.94055 13.9543 3.6776 11.6066 3.78067 8.80804C3.88386 6.01101 6.31405 3.82484 9.21089 3.92441Z" fill="white"/>
<path d="M20.763 0.000244141C17.8604 0.000244141 15.5158 2.26513 15.5158 5.06936C15.5158 7.87358 17.8602 10.1385 20.763 10.1385C23.6657 10.1385 26.0101 7.87358 26.0101 5.06936C26.0087 2.26387 23.6657 0.000244141 20.763 0.000244141Z" fill="white"/>
<path d="M29.247 20.8123C29.3952 20.8123 29.5071 20.7406 29.619 20.669C29.731 20.5609 29.7673 20.4177 29.7673 20.273C29.2833 15.3837 25.4143 11.646 20.7632 11.646C17.8243 11.646 15.144 13.1554 13.4335 15.6367C15.5541 16.7151 17.2284 18.5489 18.1965 20.8122L29.247 20.8123Z" fill="white"/>
<path d="M0.000238103 24.1554C0.000238103 24.2986 0.0380273 24.4432 0.148492 24.5513C0.222619 24.6595 0.372324 24.7311 0.520578 24.7311H17.5245C17.6728 24.7311 17.8225 24.6595 17.8966 24.5513C18.0085 24.4432 18.0449 24.3 18.0449 24.1554C17.933 23.2202 17.7469 22.358 17.4126 21.531C17.3748 21.4945 17.3748 21.4594 17.3748 21.4229C16.4446 19.0499 14.6583 17.2176 12.4998 16.2474C12.462 16.2474 12.462 16.2474 12.462 16.2109C11.3835 15.7433 10.2673 15.4919 9.03908 15.4919C4.39098 15.5285 0.484084 19.2663 0 24.1557L0.000238103 24.1554Z" fill="white"/>
</svg>
