<svg width="31" height="22" viewBox="0 0 31 22" fill="none" xmlns="http://www.w3.org/2000/svg">
<path d="M30.8378 10.4946C30.8188 10.4643 30.5594 10.1533 30.1038 9.66793C27.9398 7.3168 25.6809 5.50415 23.3714 4.26033L26.3453 1.34796C26.6174 1.0825 26.6553 0.604694 26.4339 0.27857C26.2124 -0.0475553 25.8138 -0.0930617 25.5417 0.172389L22.0363 3.61566C20.0178 2.73588 17.955 2.28082 15.8986 2.28082H15.829C15.7151 2.28082 15.6075 2.28841 15.5 2.28841C15.3924 2.28082 15.2785 2.28082 15.1709 2.28082H15.1013C12.7918 2.28082 10.4696 2.84965 8.20438 3.96454C5.6987 5.1932 3.24363 7.11202 0.896138 9.66793C0.421576 10.1685 0.174805 10.4795 0.174805 10.4795C-0.0593122 10.7752 -0.0593122 11.2455 0.181132 11.5337C0.206442 11.564 0.453214 11.8674 0.896138 12.3376C3.06014 14.6887 5.31905 16.5014 7.62858 17.7452L4.66099 20.65C4.38891 20.9154 4.35094 21.3933 4.57241 21.7194C4.69263 21.9014 4.87612 22 5.05962 22C5.19883 22 5.34436 21.9469 5.46458 21.8256L8.96368 18.3899C10.9885 19.2697 13.0449 19.7247 15.1013 19.7247H15.1709C15.2848 19.7247 15.3924 19.7171 15.5 19.7171C15.6075 19.7247 15.7214 19.7247 15.829 19.7247H15.8986C18.2081 19.7247 20.5303 19.1559 22.7956 18.041C25.3012 16.8123 27.7563 14.8935 30.1038 12.3376C30.572 11.837 30.8251 11.5261 30.8251 11.5261C31.0529 11.2379 31.0592 10.7904 30.8378 10.4946ZM1.74402 11.2227L1.73769 11.2151C1.66809 11.1393 1.60482 11.071 1.54787 11.0104C1.60482 10.9421 1.66809 10.8738 1.73769 10.8056L1.74402 10.798C6.00874 6.14882 10.5013 3.79768 15.1077 3.79768H15.1709C15.2785 3.79768 15.3797 3.80527 15.4873 3.80527C15.5 3.80527 15.5063 3.80527 15.519 3.80527C15.6202 3.79768 15.7278 3.79768 15.8353 3.79768H15.8986C17.5754 3.79768 19.2458 4.11622 20.891 4.73814L18.7396 6.84657C17.8918 5.89854 16.7528 5.31454 15.5 5.31454C12.8804 5.31454 10.7544 7.86287 10.7544 11.0028C10.7544 12.0949 11.0138 13.1188 11.4567 13.9834L8.71691 16.6682C6.3441 15.5078 4.00926 13.6876 1.74402 11.2227ZM18.9801 11.0028C18.9801 13.3008 17.4172 15.1741 15.5 15.1741C14.6458 15.1741 13.8611 14.8025 13.2537 14.1882L18.5498 9.00051C18.8219 9.59209 18.9801 10.2747 18.9801 11.0028ZM12.0199 11.0028C12.0199 8.70472 13.5827 6.8314 15.5 6.8314C16.3542 6.8314 17.1388 7.20303 17.7462 7.81736L12.4564 13.005C12.178 12.4134 12.0199 11.7309 12.0199 11.0028ZM29.2559 11.2L29.2496 11.2075C24.9849 15.8567 20.4924 18.2079 15.8923 18.2079H15.829C15.7278 18.2079 15.6202 18.2003 15.5126 18.2003C15.5063 18.2003 15.5063 18.2003 15.5 18.2003C15.4936 18.2003 15.4936 18.2003 15.481 18.2003C15.3797 18.2079 15.2722 18.2079 15.1646 18.2079H15.1013C13.4246 18.2079 11.7541 17.8893 10.109 17.2674L12.2603 15.159C13.1082 16.107 14.2471 16.691 15.5 16.691C18.1195 16.691 20.2456 14.1427 20.2456 11.0028C20.2456 9.91063 19.9862 8.88675 19.5432 8.02214L22.2767 5.3373C24.6558 6.49769 26.9843 8.31793 29.2496 10.7828L29.2559 10.7904C29.3255 10.8663 29.3888 10.9345 29.4457 10.9952C29.3888 11.0634 29.3255 11.1317 29.2559 11.2Z" fill="white"/>
</svg>
