<svg width="24" height="23" viewBox="0 0 24 23" fill="none" xmlns="http://www.w3.org/2000/svg">
<path fill-rule="evenodd" clip-rule="evenodd" d="M8.46561 22.8992H2.82194C2.51041 22.8992 2.25758 22.655 2.25758 22.354V11.9949H0.564478C0.336474 11.9949 0.130474 11.8619 0.0429971 11.6585C-0.0444796 11.4546 0.00406177 11.2201 0.165471 11.0642L11.4528 0.159885C11.6729 -0.0532949 12.0307 -0.0532949 12.2508 0.159885L23.5381 11.0642C23.6995 11.2201 23.7481 11.4546 23.6606 11.6585C23.5731 11.8619 23.3671 11.9949 23.1391 11.9949H21.446V22.354C21.446 22.655 21.1932 22.8992 20.8817 22.8992H15.238C15.0884 22.8992 14.9445 22.842 14.839 22.7395C14.7329 22.6375 14.6736 22.4985 14.6736 22.354C14.6736 22.354 14.6736 17.4722 14.6736 15.8114C14.6736 15.5105 14.4208 15.2662 14.1093 15.2662C13.0279 15.2662 10.6757 15.2662 9.59434 15.2662C9.28281 15.2662 9.02997 15.5105 9.02997 15.8114C9.02997 17.4722 9.02997 22.354 9.02997 22.354C9.02997 22.4985 8.97071 22.6375 8.86461 22.7395C8.75908 22.842 8.61516 22.8992 8.46561 22.8992Z" fill="white"/>
</svg>
