<svg width="140" height="199" viewBox="0 0 140 199" fill="none" xmlns="http://www.w3.org/2000/svg">
<path d="M68.4863 174.09C69.0357 175.295 70.9159 175.312 71.5081 174.09C81.1231 156.171 93.0044 141.945 103.511 129.396C120.372 109.255 135 91.8147 135 66.3733C134.983 29.5713 106.087 -0.0764498 69.9961 0.000148089C34.558 0.000148089 6.05593 28.3829 5.0274 64.629C4.27194 92.6682 19.244 110.076 36.5843 130.249C47.092 142.423 58.9746 156.24 68.4863 174.09ZM25.9057 55.91C26.8328 53.1061 29.2022 51.0885 32.1555 50.644L53.068 47.669C53.3427 47.6006 53.5831 47.4296 53.7205 47.1902L63.0608 28.3485C64.4086 25.6726 67.0698 24.0227 70.0317 24.0397C72.985 24.0397 75.6633 25.6811 76.9681 28.3485L86.2741 47.2244C86.4114 47.4637 86.6518 47.6347 86.9265 47.6689L107.839 50.7122C110.758 51.1568 113.162 53.1743 114.089 55.9782C114.982 58.7821 114.226 61.8257 112.097 63.8774L96.988 78.5472C96.7819 78.7524 96.6789 79.026 96.7133 79.2995L100.285 100.022C100.765 102.963 99.5978 105.835 97.1941 107.579C94.7388 109.34 91.6741 109.494 89.0213 108.161L70.375 98.3464C70.1003 98.2096 69.7913 98.2096 69.5509 98.3464L50.8361 108.126C48.2263 109.494 45.1014 109.255 42.6977 107.511C40.2939 105.801 39.1264 102.894 39.6416 99.9879L43.2129 79.2653C43.2472 78.9918 43.1785 78.684 42.9725 78.4788L27.8632 63.809C25.7342 61.7573 24.9785 58.7141 25.9057 55.91Z" fill="url(#paint0_linear_73_127)"/>
<path d="M99.5359 144C91.3833 154.165 84.1528 164.092 77.5466 176.353C74.5843 182.287 65.3733 182.295 62.4539 176.353C55.8208 163.931 48.4709 154.124 40.1564 144.035C15.6736 148.598 0 158.542 0 170.189C0 186.603 30.084 199 70 199C109.883 199 140 186.604 140 170.189C140 158.508 124.156 148.496 99.5359 144Z" fill="white"/>
<path d="M50.3079 79.3179L46.7944 99.9437C46.6592 100.727 47.3434 101.152 48.0106 100.863L66.4231 91.1284C67.538 90.5498 68.7542 90.2434 69.9704 90.2434C71.1866 90.2434 72.4029 90.5497 73.5177 91.1284L91.8965 100.897C92.6144 101.229 93.1887 100.718 93.1465 99.9777L89.6329 79.3519C89.2275 76.8673 90.0383 74.3146 91.8288 72.5787L106.728 57.9774C107.26 57.3988 106.964 56.6585 106.255 56.4798L85.7138 53.4507C83.2138 53.1104 81.0854 51.5447 79.9705 49.2643L70.7812 30.4765C70.6122 30.1021 70.2744 30 70.0041 30C69.7676 30 69.4298 30.1021 69.2608 30.4765L60.0377 49.2303C58.9229 51.5107 56.7944 53.0763 54.2945 53.4507L33.7535 56.4119C33.3143 56.48 33.1116 56.7863 33.0441 57.0245C32.9765 57.2628 32.9427 57.6031 33.2806 57.9095L48.112 72.5108C49.9026 74.2806 50.7473 76.8334 50.3079 79.3179Z" fill="white"/>
<defs>
<linearGradient id="paint0_linear_73_127" x1="70" y1="0" x2="70" y2="175" gradientUnits="userSpaceOnUse">
<stop offset="0.32" stop-color="#884EE9"/>
<stop offset="0.73" stop-color="#D593F7"/>
<stop offset="1" stop-color="#F5BBEC"/>
</linearGradient>
</defs>
</svg>
