<svg width="28" height="28" viewBox="0 0 28 28" fill="none" xmlns="http://www.w3.org/2000/svg">
<path d="M22.8368 17.7301C22.7284 17.8533 22.6474 17.9981 22.5992 18.155C22.5509 18.3119 22.5365 18.4772 22.5568 18.6401L23.3868 25.6401C23.4308 26.0108 23.3742 26.3866 23.2228 26.728C23.0715 27.0693 22.8311 27.3636 22.5268 27.5801C22.1748 27.8259 21.7562 27.9584 21.3268 27.9601C21.0104 27.9597 20.6985 27.8843 20.4168 27.7401L14.5068 24.8201C14.3498 24.7488 14.1793 24.7119 14.0068 24.7119C13.8344 24.7119 13.6639 24.7488 13.5068 24.8201L7.57683 27.7801C7.24383 27.9478 6.87139 28.0215 6.49959 27.9933C6.1278 27.9651 5.77073 27.8361 5.46683 27.6201C5.16256 27.4036 4.92214 27.1093 4.77082 26.768C4.6195 26.4266 4.56286 26.0508 4.60683 25.6801L5.43683 18.6801C5.4572 18.5172 5.44277 18.3519 5.3945 18.195C5.34623 18.0381 5.26523 17.8933 5.15683 17.7701L0.526834 12.5201C0.284071 12.2475 0.117293 11.9159 0.0432513 11.5585C-0.0307907 11.2011 -0.00949025 10.8305 0.105013 10.484C0.219517 10.1374 0.423192 9.82713 0.695583 9.5842C0.967974 9.34128 1.29949 9.1743 1.65683 9.10005L8.18683 7.78005C8.35787 7.7499 8.51976 7.68108 8.66014 7.57882C8.80052 7.47657 8.91568 7.3436 8.99683 7.19005L12.1768 1.11005C12.3534 0.775054 12.6181 0.494623 12.9424 0.299004C13.2666 0.103385 13.6381 0 14.0168 0C14.3955 0 14.767 0.103385 15.0913 0.299004C15.4155 0.494623 15.6802 0.775054 15.8568 1.11005L18.9968 7.19005C19.076 7.34125 19.188 7.47276 19.3247 7.57488C19.4615 7.67699 19.6194 7.74711 19.7868 7.78005L26.3068 9.10005C26.665 9.17293 26.9977 9.3389 27.2713 9.58125C27.5449 9.82361 27.7498 10.1338 27.8654 10.4805C27.981 10.8273 28.0031 11.1984 27.9297 11.5564C27.8562 11.9145 27.6896 12.2468 27.4468 12.5201L22.8368 17.7301Z" fill="#F2C532"/>
</svg>
