<svg width="33" height="18" viewBox="0 0 33 18" fill="none" xmlns="http://www.w3.org/2000/svg">
<path d="M16.5001 3.33691C13.5683 3.33691 11.145 5.73236 11.145 8.71504C11.145 11.6994 13.5683 14.0932 16.5001 14.0932C19.4318 14.0932 21.8551 11.6594 21.8551 8.71504C21.8551 5.77067 19.4318 3.33691 16.5001 3.33691ZM16.5001 12.8773C14.2325 12.8773 12.3557 10.9925 12.3557 8.71504C12.3557 6.43753 14.2323 4.55277 16.5001 4.55277C18.7678 4.55277 20.6445 6.43753 20.6445 8.71504C20.6445 10.9925 18.7678 12.8773 16.5001 12.8773Z" fill="white"/>
<path d="M16.4999 0C8.0176 0 1.29435 7.97002 1.01915 8.32257C0.823695 8.55874 0.823695 8.87157 1.01915 9.10776C1.29248 9.46048 8.01564 17.4303 16.4999 17.4303C24.9823 17.4303 31.7055 9.4603 31.9807 9.10776C32.1762 8.87159 32.1762 8.55875 31.9807 8.32257C31.7059 7.96985 24.9827 0 16.4999 0ZM16.4999 16.2145C9.61915 16.2145 3.7176 10.2855 2.27162 8.71516C3.71767 7.14479 9.62111 1.21586 16.4999 1.21586C23.3807 1.21586 29.2823 7.14479 30.7282 8.71516C29.2822 10.2855 23.3803 16.2145 16.4999 16.2145Z" fill="white"/>
</svg>
