<svg width="37" height="35" viewBox="0 0 37 35" fill="none" xmlns="http://www.w3.org/2000/svg">
<path d="M7.46777 17.5C7.47806 17.5 7.48858 17.5022 7.5 17.5029V33.499C7.48953 33.4991 7.47879 33.5 7.46777 33.5H3.9707C1.98314 33.4998 0.500194 32.1217 0.5 30.5703V20.4844C0.5 18.9329 1.98301 17.5539 3.9707 17.5537H4.4707V17.5029L7.46777 17.5Z" fill="#884EE9" stroke="black"/>
<path d="M7.46777 17.5C7.47806 17.5 7.48858 17.5022 7.5 17.5029V33.499C7.48953 33.4991 7.47879 33.5 7.46777 33.5H3.9707C1.98314 33.4998 0.500194 32.1217 0.5 30.5703V20.4844C0.5 18.9329 1.98301 17.5539 3.9707 17.5537H4.4707V17.5029L7.46777 17.5Z" fill="white" stroke="black"/>
<path d="M19.542 0.5C21.8682 0.548001 23.5971 1.60537 24.2969 3.36523L24.3613 3.53809C24.7204 4.58793 24.7209 5.68 24.3076 6.78125V6.78223C23.2824 9.52711 22.6846 11.918 22.6846 13.2275V13.875L23.3105 13.7109C24.4064 13.4251 26.2073 13.0126 28.1748 12.8643C30.1509 12.7153 32.2435 12.8378 33.9531 13.5811L34.0488 13.623H34.0957C35.0196 14.178 36.2918 15.7733 35.3398 18.0986L35.2227 18.3857L35.4268 18.6182C35.8949 19.1504 36.4462 19.9932 36.4951 21.1592V21.168C36.5427 21.9509 36.2176 22.7741 35.5391 23.5488L35.3857 23.7246L35.4219 23.9551C35.5877 25.028 35.7199 27.1647 33.9893 28.7236L33.8008 28.8936L33.8262 29.1465C33.9011 29.8726 33.7874 30.7979 33.2314 31.6826C32.6823 32.5565 31.6736 33.4342 29.8828 34.0361C29.8483 34.0432 29.821 34.0525 29.8027 34.0586C29.7836 34.065 29.7663 34.0715 29.7568 34.0752C29.75 34.0778 29.7461 34.0789 29.7432 34.0801C29.6141 34.0851 29.299 34.1115 28.8896 34.1455C28.4143 34.185 27.7622 34.2376 26.9814 34.29C25.4184 34.3951 23.3413 34.5 21.1396 34.5C19.2709 34.5 16.5588 34.2015 14.2686 33.9111C13.1255 33.7662 12.1015 33.625 11.3418 33.5254C11.0052 33.4813 10.7188 33.4451 10.5 33.4209V16.873C10.5319 16.8301 10.5711 16.7778 10.6162 16.7178C10.7495 16.5404 10.9355 16.2966 11.1455 16.0303C11.5727 15.4886 12.077 14.8848 12.4424 14.5459C13.3676 13.6878 14.0731 12.9248 14.667 12.0986L14.668 12.0996L14.6729 12.0918C15.7079 10.5988 17.2146 8.18232 18.1465 5.37695L18.1494 5.36816L18.1514 5.36035C18.3326 4.74475 18.4561 4.064 18.4561 3.37402V1.47656C18.4561 1.19602 18.5675 0.959448 18.751 0.789062C18.9354 0.61807 19.207 0.501355 19.542 0.5Z" fill="#884EE9" stroke="black"/>
<path d="M19.542 0.5C21.8682 0.548001 23.5971 1.60537 24.2969 3.36523L24.3613 3.53809C24.7204 4.58793 24.7209 5.68 24.3076 6.78125V6.78223C23.2824 9.52711 22.6846 11.918 22.6846 13.2275V13.875L23.3105 13.7109C24.4064 13.4251 26.2073 13.0126 28.1748 12.8643C30.1509 12.7153 32.2435 12.8378 33.9531 13.5811L34.0488 13.623H34.0957C35.0196 14.178 36.2918 15.7733 35.3398 18.0986L35.2227 18.3857L35.4268 18.6182C35.8949 19.1504 36.4462 19.9932 36.4951 21.1592V21.168C36.5427 21.9509 36.2176 22.7741 35.5391 23.5488L35.3857 23.7246L35.4219 23.9551C35.5877 25.028 35.7199 27.1647 33.9893 28.7236L33.8008 28.8936L33.8262 29.1465C33.9011 29.8726 33.7874 30.7979 33.2314 31.6826C32.6823 32.5565 31.6736 33.4342 29.8828 34.0361C29.8483 34.0432 29.821 34.0525 29.8027 34.0586C29.7836 34.065 29.7663 34.0715 29.7568 34.0752C29.75 34.0778 29.7461 34.0789 29.7432 34.0801C29.6141 34.0851 29.299 34.1115 28.8896 34.1455C28.4143 34.185 27.7622 34.2376 26.9814 34.29C25.4184 34.3951 23.3413 34.5 21.1396 34.5C19.2709 34.5 16.5588 34.2015 14.2686 33.9111C13.1255 33.7662 12.1015 33.625 11.3418 33.5254C11.0052 33.4813 10.7188 33.4451 10.5 33.4209V16.873C10.5319 16.8301 10.5711 16.7778 10.6162 16.7178C10.7495 16.5404 10.9355 16.2966 11.1455 16.0303C11.5727 15.4886 12.077 14.8848 12.4424 14.5459C13.3676 13.6878 14.0731 12.9248 14.667 12.0986L14.668 12.0996L14.6729 12.0918C15.7079 10.5988 17.2146 8.18232 18.1465 5.37695L18.1494 5.36816L18.1514 5.36035C18.3326 4.74475 18.4561 4.064 18.4561 3.37402V1.47656C18.4561 1.19602 18.5675 0.959448 18.751 0.789062C18.9354 0.61807 19.207 0.501355 19.542 0.5Z" fill="white" stroke="black"/>
</svg>
